<svg width="36" height="45" viewBox="0 0 36 45" fill="none" xmlns="http://www.w3.org/2000/svg">
<g clip-path="url(#clip0_322_2)">
<path d="M35.059 15.7153C34.8614 15.839 30.1589 18.4488 30.1589 24.2355C30.3805 30.8348 36.0933 33.1491 36.1912 33.1491C36.0933 33.2728 35.3288 36.3018 33.0642 39.477C31.2671 42.2121 29.2723 44.9697 26.2433 44.9697C23.362 44.9697 22.3277 43.1468 19.0032 43.1468C15.4329 43.1468 14.4227 44.9697 11.6892 44.9697C8.66015 44.9697 6.51766 42.0644 4.62251 39.3549C2.16042 35.8087 0.0677207 30.2437 -0.00615805 24.9004C-0.0559459 22.0689 0.486902 19.2856 1.8649 16.9215C3.80984 13.621 7.28214 11.3806 11.0741 11.3067C13.9794 11.2087 16.5652 13.3014 18.3383 13.3014C20.0375 13.3014 23.2143 11.3067 26.8086 11.3067C28.3601 11.3083 32.4973 11.7757 35.059 15.7153ZM18.0925 10.7414C17.5754 8.1556 19.0032 5.56984 20.333 3.92041C22.0322 1.92569 24.7159 0.571777 27.0303 0.571777C27.178 3.15753 26.2417 5.69351 24.5682 7.54047C23.0665 9.5352 20.4808 11.0369 18.0925 10.7414Z" fill="black"/>
</g>
<defs>
<clipPath id="clip0_322_2">
<rect width="36" height="45" fill="white"/>
</clipPath>
</defs>
</svg>
