<svg width="23" height="24" viewBox="0 0 23 24" fill="none" xmlns="http://www.w3.org/2000/svg">
<g clip-path="url(#clip0_214_679)">
<path d="M7.87931 17.8092H3.81168C2.30418 17.8092 1.55044 17.8092 1.39185 17.6929C1.21368 17.5622 1.17015 17.4851 1.15085 17.2659C1.13369 17.0708 1.59565 16.3195 2.5196 14.8171C3.47356 13.2658 4.2836 11.0071 4.2836 7.80925C4.2836 6.04114 5.04085 4.34545 6.38875 3.0952C7.73667 1.84496 9.56484 1.14258 11.4711 1.14258C13.3773 1.14258 15.2055 1.84496 16.5534 3.0952C17.9014 4.34545 18.6586 6.04114 18.6586 7.80925C18.6586 11.0071 19.4686 13.2658 20.4226 14.8171C21.3465 16.3195 21.8085 17.0708 21.7914 17.2659C21.7721 17.4851 21.7285 17.5622 21.5504 17.6929C21.3917 17.8092 20.638 17.8092 19.1306 17.8092H15.0648M7.87931 17.8092L7.87735 18.9997C7.87735 20.9722 9.48637 22.5711 11.4711 22.5711C13.4559 22.5711 15.0648 20.9722 15.0648 18.9997V17.8092M7.87931 17.8092H15.0648" stroke="black" stroke-width="2" stroke-linecap="round" stroke-linejoin="round"/>
</g>
<defs>
<clipPath id="clip0_214_679">
<rect width="23" height="24" fill="white"/>
</clipPath>
</defs>
</svg>
