<svg width="72" height="72" viewBox="0 0 72 72" fill="none" xmlns="http://www.w3.org/2000/svg">
<path d="M64.7529 14.377C64.1294 14.3956 63.5376 14.6562 63.1029 15.1036L26.3998 51.8067L11.2967 36.7036C11.0755 36.4732 10.8107 36.2894 10.5175 36.1627C10.2244 36.036 9.909 35.9691 9.5897 35.9658C9.2704 35.9626 8.95366 36.0231 8.65804 36.1437C8.36241 36.2644 8.09384 36.4429 7.86805 36.6687C7.64226 36.8945 7.4638 37.1631 7.3431 37.4587C7.22241 37.7543 7.16191 38.071 7.16516 38.3903C7.16841 38.7096 7.23534 39.0251 7.36202 39.3182C7.48871 39.6113 7.6726 39.8762 7.90294 40.0973L24.7029 56.8973C25.153 57.3472 25.7634 57.6 26.3998 57.6C27.0362 57.6 27.6466 57.3472 28.0967 56.8973L66.4967 18.4973C66.8435 18.1602 67.0804 17.7262 67.1763 17.2522C67.2722 16.7781 67.2226 16.2861 67.0341 15.8407C66.8456 15.3953 66.527 15.0173 66.1199 14.7561C65.7129 14.4949 65.2364 14.3628 64.7529 14.377Z" fill="#33A25F"/>
</svg>
