<svg width="66" height="65" viewBox="0 0 66 65" fill="none" xmlns="http://www.w3.org/2000/svg">
<path d="M63.6177 25.8303H61.0303V25.697H32.1212V38.5455H50.2745C47.6261 46.0249 40.5097 51.3939 32.1212 51.3939C21.4778 51.3939 12.8485 42.7646 12.8485 32.1212C12.8485 21.4778 21.4778 12.8485 32.1212 12.8485C37.0342 12.8485 41.5038 14.7019 44.9071 17.7293L53.9925 8.64382C48.2557 3.29724 40.5819 0 32.1212 0C14.3823 0 0 14.3823 0 32.1212C0 49.8602 14.3823 64.2424 32.1212 64.2424C49.8602 64.2424 64.2424 49.8602 64.2424 32.1212C64.2424 29.9675 64.0208 27.8652 63.6177 25.8303Z" fill="#FFC107"/>
<path d="M3.70361 17.1704L14.257 24.91C17.1126 17.8401 24.0283 12.8485 32.1213 12.8485C37.0342 12.8485 41.5039 14.7019 44.9071 17.7293L53.9926 8.64382C48.2557 3.29724 40.582 0 32.1213 0C19.7835 0 9.08392 6.96549 3.70361 17.1704Z" fill="#FF3D00"/>
<path d="M32.1211 64.2426C40.418 64.2426 47.9568 61.0674 53.6567 55.9039L43.7152 47.4914C40.4902 49.9342 36.4815 51.3941 32.1211 51.3941C23.7663 51.3941 16.6724 46.0668 13.9999 38.6323L3.52515 46.7028C8.84121 57.1052 19.6371 64.2426 32.1211 64.2426Z" fill="#4CAF50"/>
<path d="M63.6175 25.8301H61.0302V25.6968H32.1211V38.5453H50.2744C49.0024 42.138 46.6913 45.2361 43.7104 47.4926L43.7152 47.4894L53.6568 55.902C52.9533 56.5412 64.2423 48.1816 64.2423 32.121C64.2423 29.9673 64.0207 27.865 63.6175 25.8301Z" fill="#1976D2"/>
</svg>
