<svg width="14" height="16" viewBox="0 0 14 16" fill="none" xmlns="http://www.w3.org/2000/svg">
<g clip-path="url(#clip0_169_4674)">
<path d="M5.74485 8.13917H4.32409C4.30961 8.13917 4.30237 8.14644 4.29512 8.16195C4.25795 8.8312 4.14588 9.49412 3.96106 10.1382C3.96106 10.146 3.96106 10.1532 3.9683 10.161C3.97554 10.1683 3.98278 10.1683 3.99002 10.1683H4.47616C4.49064 10.1683 4.49788 10.161 4.49788 10.1537C4.63595 9.70086 4.74457 9.11226 4.78802 8.61432H5.25243V10.146C5.25243 10.1605 5.26692 10.176 5.2814 10.176H5.74581C5.7603 10.176 5.77478 10.161 5.77478 10.146V8.16195C5.77478 8.14644 5.7603 8.13917 5.74581 8.13917H5.74485ZM11.7586 8.13917H11.2942C11.2797 8.13917 11.2652 8.1542 11.2652 8.16923V9.70086C11.1638 9.73093 11.0624 9.74596 10.9466 9.74596C10.6415 9.74596 10.5691 9.64802 10.5691 9.22523V8.16923C10.5691 8.15468 10.5546 8.13917 10.5401 8.13917H10.0829C10.0684 8.13917 10.054 8.1542 10.054 8.16923V9.27808C10.054 9.97238 10.2789 10.2361 10.852 10.2361C11.1783 10.2361 11.5481 10.146 11.7658 10.0626C11.7731 10.0553 11.7803 10.048 11.7803 10.0403V8.16923C11.7875 8.14644 11.7731 8.13917 11.7586 8.13917ZM1.92237 8.13917H1.45071C1.43623 8.13917 1.42899 8.14644 1.42899 8.16195C1.35657 8.46353 1.20402 8.9765 1.00126 9.51226L0.529607 8.16195C0.522366 8.1542 0.515124 8.14644 0.507883 8.14644H0.0289862C0.0217448 8.14644 0.0145035 8.1542 0.00726209 8.16195C2.07098e-05 8.16923 2.07098e-05 8.1765 0.00726209 8.18426L0.718366 10.2061C0.645952 10.3646 0.580297 10.4926 0.515124 10.6133C0.466233 10.7024 0.420187 10.7929 0.377055 10.8849C0.369814 10.8926 0.369814 10.9004 0.377055 10.9077C0.384779 10.9154 0.391538 10.9227 0.399262 10.9227H0.913883C0.921124 10.9227 0.935607 10.9154 0.935607 10.9077C1.04294 10.69 1.1423 10.4684 1.23347 10.2434C1.51341 9.56874 1.75549 8.87885 1.95857 8.17699C1.95857 8.16923 1.95857 8.16196 1.95133 8.1542C1.93685 8.13917 1.92961 8.13917 1.92237 8.13917ZM3.6125 9.70038C3.6125 9.69311 3.60526 9.68583 3.59802 9.68583H3.5763C3.46043 9.73093 3.24995 9.76099 3.10464 9.76099C2.7783 9.76099 2.62623 9.67032 2.62623 9.15735C2.62623 8.7428 2.67692 8.5542 3.10464 8.5542C3.22823 8.5542 3.33685 8.56874 3.48216 8.61432C3.49664 8.61432 3.50388 8.61432 3.51112 8.59977C3.56181 8.49359 3.62699 8.36559 3.6994 8.20705V8.18426C3.6994 8.17699 3.69216 8.16971 3.68492 8.16971C3.48539 8.10652 3.27764 8.07336 3.06843 8.07129C2.39402 8.07129 2.0894 8.40292 2.0894 9.15008C2.0894 9.9045 2.39354 10.2439 3.06843 10.2439C3.23547 10.2439 3.5763 10.2061 3.73561 10.1382C3.75009 10.1304 3.75781 10.1154 3.75009 10.1004L3.6125 9.70086V9.70038ZM8.02974 8.13917H7.55857C7.54409 8.13917 7.53685 8.14644 7.53685 8.16195C7.46443 8.47129 7.31188 8.9765 7.10912 9.51226L6.63747 8.16195C6.63023 8.1542 6.62299 8.14644 6.61575 8.14644H6.13685C6.12961 8.14644 6.12237 8.1542 6.11512 8.16195C6.10788 8.16923 6.10788 8.1765 6.11512 8.18426L6.82623 10.2061C6.75381 10.3646 6.68816 10.4926 6.62299 10.6133C6.57258 10.7042 6.5265 10.7974 6.48492 10.8926C6.47768 10.9004 6.47768 10.9077 6.48492 10.9154C6.49216 10.9227 6.4994 10.93 6.50664 10.93H7.02174C7.02899 10.93 7.04347 10.9227 7.04347 10.9154C7.13037 10.7418 7.23947 10.5004 7.34085 10.2512C7.63823 9.51226 7.88492 8.81796 8.06643 8.18426C8.06643 8.17699 8.06643 8.16971 8.05919 8.16195C8.04471 8.13917 8.03747 8.13917 8.03023 8.13917H8.02974ZM9.77106 8.13917H8.40002C8.38554 8.13917 8.37106 8.1542 8.37106 8.16923V10.1532C8.37106 10.1683 8.38554 10.1833 8.40002 10.1833H8.86443C8.87892 10.1833 8.8934 10.1687 8.8934 10.1532V8.62208H9.61174C9.6185 8.62208 9.63347 8.61432 9.63347 8.60705C9.6914 8.47129 9.74209 8.32777 9.80002 8.18426V8.16195C9.78554 8.13917 9.7783 8.13917 9.77106 8.13917Z" fill="#EF4058"/>
<path d="M2.47366 5.09218C1.806 5.09218 1.54531 5.39375 1.54531 6.15594C1.54531 6.93266 1.806 7.23472 2.47366 7.23472C3.14807 7.23472 3.40924 6.93266 3.40924 6.15594C3.40924 5.38648 3.14855 5.09218 2.47366 5.09218ZM2.47366 6.78915C2.16903 6.78915 2.07441 6.70672 2.07441 6.16369C2.07441 5.59012 2.17579 5.53727 2.47366 5.53727C2.77779 5.53727 2.87966 5.59012 2.87966 6.16321C2.87966 6.70624 2.78552 6.78963 2.47366 6.78963V6.78915ZM5.26641 6.70672C5.26641 6.69897 5.25917 6.69121 5.25193 6.69121H5.23021C5.11434 6.73678 4.90386 6.76685 4.75855 6.76685C4.43221 6.76685 4.27965 6.67618 4.27965 6.16321C4.27965 5.74866 4.33034 5.56006 4.75855 5.56006C4.88166 5.56006 4.99028 5.5746 5.13559 5.62018C5.15007 5.62018 5.15731 5.62018 5.16455 5.60563C5.21572 5.49945 5.28041 5.37145 5.35331 5.21291V5.19012C5.35331 5.18285 5.34607 5.17557 5.33883 5.17557C5.1393 5.11238 4.93155 5.07922 4.72234 5.07715C4.04745 5.07715 3.74283 5.40878 3.74283 6.15594C3.74283 6.91036 4.04745 7.24975 4.72234 7.24975C4.8889 7.24975 5.23021 7.21194 5.38952 7.14406C5.404 7.13679 5.41124 7.12127 5.404 7.10624L5.26641 6.70672ZM1.4 5.14454H0.0289655C0.0144828 5.14454 0 5.15957 0 5.1746V7.1586C0 7.17363 0.0144828 7.18866 0.0289655 7.18866H0.493379C0.507862 7.18866 0.522345 7.17412 0.522345 7.1586V5.61969H1.23297C1.24021 5.61969 1.25469 5.61242 1.25469 5.60515C1.31262 5.46891 1.36379 5.32539 1.42172 5.18236V5.15957C1.41448 5.1523 1.40724 5.14454 1.4 5.14454Z" fill="#1466AC"/>
<path d="M13.9276 9.96509V9.93503C13.9276 9.92 13.9276 9.89721 13.9343 9.8817C13.9565 9.60291 13.971 9.26352 13.9855 8.87127V8.84121C13.9927 8.57697 14 8.29042 14 7.99612C14 7.70182 13.9927 7.41527 13.9855 7.15152V7.12097C13.9749 6.78371 13.958 6.44668 13.9348 6.11006C13.9348 6.09552 13.9348 6.07273 13.9271 6.0577V6.02715C13.9271 5.99709 13.9198 5.97479 13.9198 5.94473V5.91418C13.8981 5.61988 13.8836 5.43903 13.8764 5.424C13.8764 5.39345 13.8691 5.36339 13.8691 5.34109V5.3183C13.863 5.26742 13.8533 5.21704 13.8402 5.16751C13.8402 5.15976 13.8402 5.15248 13.8329 5.14473C13.7098 4.53382 13.3835 3.8623 12.977 3.35709C12.8294 3.17035 12.6615 3.00073 12.4764 2.85139C11.8223 2.35 11.1419 1.8842 10.4382 1.456C9.36453 0.799515 8.41446 0.339394 8.28363 0.286061C8.27639 0.286061 8.27639 0.278788 8.27639 0.278788C7.96094 0.140592 7.62555 0.0538442 7.28287 0.0218182C7.21046 0.0145455 7.13805 0.00727273 7.06515 0.00727273C6.99274 0 6.92708 0 6.86239 0H6.76053C6.26715 0.0150303 5.80998 0.105697 5.44743 0.279273C5.39674 0.301576 4.43218 0.761697 3.33681 1.43321L3.29336 1.456C2.58998 1.88509 1.90933 2.35069 1.25418 2.85091C0.979012 3.0623 0.73184 3.33382 0.506874 3.68097C0.456185 3.75612 0.456185 3.95248 0.673909 3.95248H1.23246C1.47191 3.95248 1.52984 3.8017 1.79825 3.59758C2.09563 3.37164 2.68315 2.91879 3.75681 2.25503C4.36049 1.88571 4.98016 1.54339 5.61398 1.22909C5.62122 1.22909 5.62846 1.22182 5.6357 1.22182C5.6357 1.22182 5.64294 1.22182 5.64294 1.21406C5.64294 1.21406 5.65018 1.21406 5.65018 1.2063C5.65743 1.2063 5.66467 1.19903 5.66467 1.19903C5.67191 1.19903 5.67915 1.19127 5.68639 1.19127C5.77329 1.14618 5.83122 1.12339 5.83122 1.12339C6.07791 1.01042 6.42646 0.934788 6.79625 0.927515H6.94108C7.05018 0.927515 7.15881 0.934788 7.26067 0.949818C7.48515 0.980364 7.68839 1.02545 7.85543 1.10109C7.86991 1.10836 7.89163 1.11564 7.90612 1.12339C7.90612 1.12339 7.91336 1.13115 7.93508 1.13842C8.10212 1.21406 9.00149 1.65915 9.98053 2.25503C10.6556 2.66907 11.3093 3.11733 11.9391 3.59806C12.0772 3.70327 12.2147 3.85406 12.3456 4.01988C12.6719 4.4577 12.9403 5.05358 12.9838 5.5137C12.9838 5.52145 13.0055 5.70279 13.0272 6.01164C13.0272 6.03442 13.0272 6.04945 13.0345 6.07224V6.11733C13.0345 6.14739 13.0417 6.17018 13.0417 6.20024V6.23079C13.0417 6.24533 13.0417 6.26812 13.0489 6.28315C13.0489 6.32097 13.0562 6.35879 13.0562 6.39661C13.0562 6.41891 13.0562 6.4417 13.0634 6.46448V6.47903C13.0634 6.50958 13.0634 6.53236 13.0707 6.56242V6.62303C13.1195 7.52256 13.1195 8.4241 13.0707 9.32364V9.38376C13.0707 9.41382 13.0707 9.43661 13.0634 9.46667V9.4817C13.0634 9.50448 13.0634 9.52727 13.0562 9.54957C13.0562 9.58739 13.0489 9.62521 13.0489 9.66303C13.0489 9.68533 13.0489 9.70085 13.0417 9.71588V9.74594C13.0417 9.776 13.0345 9.79879 13.0345 9.82885V9.87394C13.0345 9.89673 13.0345 9.91951 13.0272 9.93454C13.0055 10.2439 12.9838 10.4325 12.9838 10.4325C12.9403 10.8926 12.6719 11.4885 12.3456 11.9258C12.2295 12.0844 12.0928 12.2266 11.9391 12.3486C11.9318 12.3486 11.7436 12.4989 11.4312 12.7253C10.9586 13.0636 10.4748 13.3857 9.98053 13.6912C9.31783 14.0976 8.63515 14.4703 7.93508 14.8078L7.90612 14.8223C7.89163 14.8301 7.86991 14.8378 7.85543 14.8451C7.68839 14.913 7.48515 14.9663 7.26067 14.9964C7.15929 15.0109 7.05018 15.0187 6.94108 15.0187H6.79625C6.42646 15.0114 6.07791 14.9435 5.8317 14.8228C5.8317 14.8228 5.78053 14.8 5.68639 14.7549C5.67915 14.7472 5.66467 14.7472 5.65743 14.7399C5.65018 14.7321 5.64294 14.7321 5.6357 14.7248C5.62846 14.7248 5.62846 14.7171 5.62122 14.7171C5.61398 14.7171 5.60674 14.7098 5.59949 14.7098C5.59225 14.7021 5.58501 14.7021 5.57053 14.6943H5.56329C5.19301 14.544 4.49639 14.1813 3.75681 13.729C2.67591 13.0725 2.09612 12.6124 1.79825 12.3859C1.52984 12.1823 1.47191 12.032 1.23246 12.032H0.674391C0.45715 12.032 0.45715 12.2279 0.50784 12.3035C0.732323 12.6502 0.979012 12.9217 1.25467 13.1326C1.91092 13.6313 2.59114 14.0973 3.29287 14.529C3.35081 14.5663 3.40874 14.6041 3.47439 14.6342C4.51184 15.2528 5.40398 15.6752 5.45467 15.7057C5.80998 15.8715 6.27439 15.9695 6.76777 15.9845H6.86915C6.93481 15.9845 6.9995 15.9845 7.06515 15.9767C7.13756 15.9767 7.20998 15.9695 7.28239 15.9622C7.65267 15.9239 8.00074 15.8337 8.27687 15.7052C8.27687 15.7052 8.28363 15.7052 8.28363 15.6979C8.40722 15.6373 9.36501 15.1772 10.4309 14.5285C10.9425 14.2136 11.4432 13.8815 11.9323 13.5326C12.1136 13.4026 12.2926 13.2694 12.4691 13.1331C12.6429 12.9973 12.81 12.8238 12.9698 12.6274C13.3758 12.1222 13.7026 11.4507 13.8257 10.8398C13.8257 10.832 13.8257 10.8247 13.8329 10.817C13.8402 10.7641 13.8547 10.7113 13.8619 10.6662V10.6434C13.8692 10.6133 13.8691 10.5833 13.8691 10.561C13.8691 10.5455 13.8909 10.3646 13.9126 10.0703V10.0402C13.9271 10.0175 13.9271 9.99467 13.9271 9.96461L13.9276 9.96509Z" fill="url(#paint0_linear_169_4674)"/>
</g>
<defs>
<linearGradient id="paint0_linear_169_4674" x1="7.23943" y1="0" x2="7.23943" y2="15.9985" gradientUnits="userSpaceOnUse">
<stop offset="0.398" stop-color="#1466AC"/>
<stop offset="0.659" stop-color="#EF4058"/>
</linearGradient>
<clipPath id="clip0_169_4674">
<rect width="14" height="16" fill="white"/>
</clipPath>
</defs>
</svg>
