<svg width="40" height="40" viewBox="0 0 40 40" fill="none" xmlns="http://www.w3.org/2000/svg">
<g clip-path="url(#clip0_268_1206)">
<path d="M20 0C14.6957 0 9.60859 2.10714 5.85786 5.85786C2.10714 9.60859 0 14.6957 0 20C0 25.3043 2.10714 30.3914 5.85786 34.1421C9.60859 37.8929 14.6957 40 20 40C25.3043 40 30.3914 37.8929 34.1421 34.1421C37.8929 30.3914 40 25.3043 40 20C40 14.6957 37.8929 9.60859 34.1421 5.85786C30.3914 2.10714 25.3043 0 20 0Z" fill="#1976D2"/>
<path d="M31.937 14.041C31.983 13.89 32.005 13.75 31.999 13.625C31.984 13.263 31.735 13 31.149 13H28.531C27.87 13 27.565 13.4 27.387 13.801C27.387 13.801 25.755 17.16 23.874 19.375C23.264 20.016 22.954 20 22.624 20C22.447 20 22 19.786 22 19.199V14.014C22 13.32 21.827 13 21.268 13H16.619C16.212 13 16 13.32 16 13.641C16 14.308 16.898 14.468 17 16.337V19.96C17 20.84 16.847 21 16.517 21C15.627 21 13.875 18 12.702 14.068C12.448 13.294 12.194 13 11.533 13H8.89C8.127 13 8 13.374 8 13.774C8 14.495 8.6 18.393 11.875 22.875C14.25 26.125 17.379 28 20.149 28C21.827 28 21.999 27.573 21.999 26.906V23.934C22 23.133 22.183 23 22.717 23C23.098 23 23.875 23.25 25.375 25C27.105 27.018 27.419 28 28.411 28H31.029C31.637 28 31.986 27.745 32 27.25C32.003 27.124 31.985 26.983 31.944 26.826C31.75 26.25 30.86 24.842 29.75 23.5C29.135 22.757 28.528 22.021 28.249 21.621C28.062 21.36 27.991 21.176 28 21C28.009 20.815 28.105 20.639 28.249 20.393C28.223 20.393 31.607 15.642 31.937 14.041Z" fill="white"/>
</g>
<defs>
<clipPath id="clip0_268_1206">
<rect width="40" height="40" fill="white"/>
</clipPath>
</defs>
</svg>
