<svg width="46" height="46" viewBox="0 0 46 46" fill="none" xmlns="http://www.w3.org/2000/svg">
<g clip-path="url(#clip0_269_1209)">
<circle cx="23" cy="23" r="23" fill="white"/>
<path d="M44.7989 21.8892C44.8029 21.8892 44.8059 21.8892 44.8099 21.8892C45.0889 21.8892 45.3549 21.7722 45.5439 21.5672C45.7359 21.3592 45.8309 21.0802 45.8059 20.7982C44.8019 9.75522 36.0589 1.00922 25.0149 0.00322261C24.7349 -0.0187774 24.4529 0.0722227 24.2449 0.265223C24.0369 0.457223 23.9209 0.728223 23.9239 1.01122C24.0979 15.6872 26.0339 21.6842 44.7989 21.8892ZM44.7989 23.9172C26.0339 24.1222 24.0989 30.1192 23.9249 44.7952C23.9219 45.0782 24.0379 45.3492 24.2459 45.5412C24.4319 45.7122 24.6749 45.8072 24.9249 45.8072C24.9549 45.8072 24.9859 45.8062 25.0159 45.8032C36.0599 44.7972 44.8029 36.0522 45.8059 25.0082C45.8309 24.7262 45.7369 24.4472 45.5439 24.2392C45.3509 24.0312 45.0819 23.9282 44.7989 23.9172ZM20.7279 0.00822272C9.71893 1.04322 1.00393 9.78722 0.00493257 20.8002C-0.0200674 21.0822 0.0739327 21.3612 0.266933 21.5692C0.455933 21.7742 0.722933 21.8902 1.00093 21.8902C1.00493 21.8902 1.00893 21.8902 1.01293 21.8902C19.7159 21.6752 21.6469 15.6812 21.8229 1.01522C21.8259 0.732223 21.7089 0.460223 21.5009 0.268223C21.2909 0.0762227 21.0099 -0.0177773 20.7279 0.00822272ZM1.01193 23.9162C0.700933 23.8812 0.456933 24.0292 0.265933 24.2372C0.0739327 24.4452 -0.0210674 24.7242 0.00393264 25.0062C1.00293 36.0192 9.71893 44.7632 20.7279 45.7982C20.7589 45.8012 20.7909 45.8022 20.8219 45.8022C21.0719 45.8022 21.3139 45.7082 21.4999 45.5372C21.7079 45.3452 21.8249 45.0732 21.8219 44.7902C21.6459 30.1252 19.7159 24.1312 1.01193 23.9162Z" fill="black"/>
</g>
<defs>
<clipPath id="clip0_269_1209">
<rect width="46" height="46" fill="white"/>
</clipPath>
</defs>
</svg>
