<svg width="18" height="39" viewBox="0 0 18 39" fill="none" xmlns="http://www.w3.org/2000/svg">
<g clip-path="url(#clip0_322_4)">
<path d="M17.1258 0H11.5159C6.00386 0 1.60647 4.36848 1.60647 12.8485C1.60647 17.9365 3.59317 21.6882 7.62759 23.5384L0.0983779 37.7232C-0.147349 38.1873 0.0983777 38.5455 0.491863 38.5455H3.98504C4.28056 38.5455 4.47811 38.4427 4.57608 38.1873L11.6443 24.0909H13.6519L13.6391 38.1873C13.6391 38.3415 13.7868 38.5455 13.9828 38.5455H17.2736C17.5691 38.5455 17.6671 38.3913 17.6671 38.1359V0.51394C17.6671 0.154182 17.4695 0 17.1258 0ZM13.6519 20.8788H11.2428C8.83374 20.8788 5.62162 19.0158 5.62162 12.8485C5.62162 6.42264 8.24111 3.21212 11.2428 3.21212H13.6519V20.8788Z" fill="#FA5252"/>
</g>
<defs>
<clipPath id="clip0_322_4">
<rect width="18" height="39" fill="white"/>
</clipPath>
</defs>
</svg>
