<svg width="45" height="27" viewBox="0 0 45 27" fill="none" xmlns="http://www.w3.org/2000/svg">
<path fill-rule="evenodd" clip-rule="evenodd" d="M41.2584 8.6507C41.6648 7.43017 42.2867 5.99253 43.1456 5.12675H36.0655C35.9485 5.09047 35.8263 5.06593 35.7072 5.03339C35.3225 4.42526 32.689 1 22.1636 1C10.6125 1 8.56541 5.12675 8.56541 5.12675H1.181C2.12304 6.07628 2.7777 7.71023 3.17833 8.99477C1.81767 10.8138 1 13.0682 1 15.5172C1 21.5094 5.83668 26.3846 11.7821 26.3846C15.0776 26.3846 18.0287 24.883 20.008 22.5262L22.4557 25.9813L24.5684 22.3923C26.5472 24.827 29.5512 26.3846 32.9102 26.3846C38.8551 26.3846 43.6923 21.5094 43.6923 15.5172C43.6923 12.9145 42.7778 10.5236 41.2584 8.6507ZM11.9618 24.0769C7.18996 24.0769 3.30769 20.1952 3.30769 15.4233C3.30769 10.6515 7.18996 6.76923 11.9618 6.76923C16.7331 6.76923 20.6154 10.6515 20.6154 15.4233C20.6154 20.1952 16.7331 24.0769 11.9618 24.0769ZM8.29003 11.7516C7.30923 12.7324 6.76923 14.0362 6.76923 15.4233C6.76923 16.8105 7.30923 18.1143 8.29003 19.0946C9.27083 20.0754 10.5747 20.6154 11.9618 20.6154C14.8246 20.6154 17.1538 18.2862 17.1538 15.4233C17.1538 12.56 14.8246 10.2308 11.9618 10.2308C10.5747 10.2308 9.27083 10.7708 8.29003 11.7516ZM9.10573 18.2789C8.34307 17.5162 7.92308 16.5019 7.92308 15.4234C7.92308 14.3442 8.34307 13.3305 9.10573 12.5679C9.86899 11.8046 10.8827 11.3846 11.9618 11.3846C14.1885 11.3846 16 13.1967 16 15.4234C16 17.6501 14.1885 19.4615 11.9618 19.4615C10.8827 19.4615 9.86899 19.0415 9.10573 18.2789ZM10.2308 15.4233C10.2308 16.3792 11.006 17.1538 11.9618 17.1538C12.9176 17.1538 13.6923 16.3792 13.6923 15.4233C13.6923 14.4675 12.9176 13.6923 11.9618 13.6923C11.006 13.6923 10.2308 14.4675 10.2308 15.4233ZM32.7308 24.0769C27.9591 24.0769 24.0769 20.1952 24.0769 15.4233C24.0769 10.6515 27.9591 6.76923 32.7308 6.76923C37.5025 6.76923 41.3846 10.6515 41.3846 15.4233C41.3846 20.1952 37.5025 24.0769 32.7308 24.0769ZM29.0593 11.7516C28.0785 12.7324 27.5385 14.0362 27.5385 15.4233C27.5385 16.8105 28.0785 18.1143 29.0593 19.0946C30.0401 20.0754 31.3439 20.6154 32.731 20.6154C35.5939 20.6154 37.9231 18.2862 37.9231 15.4233C37.9231 12.56 35.5939 10.2308 32.731 10.2308C31.3439 10.2308 30.0401 10.7708 29.0593 11.7516ZM29.875 18.2789C29.1123 17.5162 28.6923 16.5019 28.6923 15.4234C28.6923 14.3442 29.1123 13.3305 29.875 12.5679C30.6382 11.8046 31.6519 11.3846 32.7311 11.3846C34.9578 11.3846 36.7692 13.1967 36.7692 15.4234C36.7692 17.6501 34.9578 19.4615 32.7311 19.4615C31.6519 19.4615 30.6382 19.0415 29.875 18.2789ZM31 15.4233C31 16.3792 31.7752 17.1538 32.731 17.1538C33.6869 17.1538 34.4615 16.3792 34.4615 15.4233C34.4615 14.4675 33.6869 13.6923 32.731 13.6923C31.7752 13.6923 31 14.4675 31 15.4233ZM22.13 2.15385C29.4136 2.15385 32.1538 5.2401 32.1538 5.2401C32.1538 5.2401 24.3654 3.91749 21.7692 13.6923C19.1731 3.91749 11.3846 5.2401 11.3846 5.2401C11.3846 5.2401 14.1254 2.15385 21.409 2.15385H22.13Z" fill="black"/>
</svg>
