<svg width="40" height="40" viewBox="0 0 40 40" fill="none" xmlns="http://www.w3.org/2000/svg">
<rect width="40" height="40" rx="20" fill="#F2F2F2"/>
<g clip-path="url(#clip0_451_11)">
<path d="M20.0001 13.409C21.6092 13.409 23.0501 13.9635 24.1865 15.0454L27.3001 11.9317C25.4092 10.1726 22.941 9.09082 20.0001 9.09082C15.7365 9.09082 12.0501 11.5363 10.2546 15.0999L13.8819 17.9135C14.741 15.3272 17.1546 13.409 20.0001 13.409Z" fill="#EA4335"/>
<path d="M30.4455 20.2498C30.4455 19.5362 30.3773 18.8453 30.2727 18.1816H20V22.2816H25.8818C25.6182 23.6271 24.8545 24.7725 23.7091 25.5453L27.2227 28.2725C29.2727 26.3725 30.4455 23.5635 30.4455 20.2498Z" fill="#4285F4"/>
<path d="M13.8773 22.0862C13.6591 21.4271 13.5319 20.7271 13.5319 19.9999C13.5319 19.2726 13.6546 18.5726 13.8773 17.9135L10.25 15.0999C9.50912 16.5726 9.09094 18.2362 9.09094 19.9999C9.09094 21.7635 9.50912 23.4271 10.2546 24.8999L13.8773 22.0862Z" fill="#FBBC05"/>
<path d="M20 30.9091C22.9455 30.9091 25.4227 29.9409 27.2227 28.2682L23.7091 25.5409C22.7318 26.2 21.4727 26.5863 20 26.5863C17.1545 26.5863 14.7409 24.6682 13.8773 22.0818L10.25 24.8954C12.05 28.4636 15.7364 30.9091 20 30.9091Z" fill="#34A853"/>
</g>
<defs>
<clipPath id="clip0_451_11">
<rect width="21.8182" height="21.8182" fill="white" transform="translate(9.09094 9.09082)"/>
</clipPath>
</defs>
</svg>
