<svg viewBox="0 0 6 7" fill="none" xmlns="http://www.w3.org/2000/svg">
<g clip-path="url(#clip0_166_2535)">
<path fill-rule="evenodd" clip-rule="evenodd" d="M3.13554 6.14902C3.08395 6.18516 3.03586 6.21795 2.99191 6.24736C2.94503 6.21768 2.89303 6.18354 2.83664 6.14506C2.57077 5.96347 2.22595 5.69692 1.88636 5.36447C1.18981 4.68253 0.604167 3.81206 0.604167 2.88352C0.604167 1.6095 1.68614 0.576705 3.02083 0.576705C4.35552 0.576705 5.4375 1.6095 5.4375 2.88352C5.4375 3.8021 4.82604 4.67008 4.10402 5.35924C3.75373 5.69365 3.40122 5.96309 3.13554 6.14902ZM6.04167 2.88352C6.04167 5.19034 3.02083 6.92045 3.02083 6.92045C2.86979 6.92045 0 5.19034 0 2.88352C0 1.291 1.35247 0 3.02083 0C4.68918 0 6.04167 1.291 6.04167 2.88352ZM3.625 2.88352C3.625 3.20202 3.35449 3.46023 3.02083 3.46023C2.68717 3.46023 2.41667 3.20202 2.41667 2.88352C2.41667 2.56502 2.68717 2.30682 3.02083 2.30682C3.35449 2.30682 3.625 2.56502 3.625 2.88352ZM4.22917 2.88352C4.22917 3.52055 3.6882 4.03693 3.02083 4.03693C2.35347 4.03693 1.8125 3.52055 1.8125 2.88352C1.8125 2.24651 2.35347 1.73011 3.02083 1.73011C3.6882 1.73011 4.22917 2.24651 4.22917 2.88352Z" fill="#33A25F"/>
</g>
<defs>
<clipPath id="clip0_166_2535">
<rect width="6" height="7" fill="white"/>
</clipPath>
</defs>
</svg>
