<svg width="460" height="413" viewBox="0 0 460 413" fill="none" xmlns="http://www.w3.org/2000/svg">
<path fill-rule="evenodd" clip-rule="evenodd" d="M324.764 217.29H91.496C90.801 225.052 87.329 232.046 82.106 237.267C76.861 242.514 69.867 245.962 62.107 246.681V323.255C69.867 323.973 76.861 327.446 82.083 332.667C87.328 337.914 90.801 344.907 91.496 352.668H324.764C325.483 344.907 328.931 337.914 334.176 332.692C339.422 327.446 346.417 323.972 354.153 323.254V246.68C346.393 245.961 339.399 242.513 334.176 237.266C328.955 232.046 325.482 225.052 324.764 217.29ZM230.393 262.704C224.716 257.026 216.835 253.507 208.141 253.507C199.446 253.507 191.567 257.027 185.866 262.704C180.189 268.405 176.669 276.285 176.669 284.979C176.669 293.672 180.189 301.53 185.89 307.23C191.567 312.931 199.446 316.452 208.14 316.452C216.763 316.452 224.571 312.979 230.248 307.374L230.392 307.23C236.093 301.53 239.613 293.672 239.613 284.979C239.614 276.285 236.094 268.405 230.393 262.704ZM208.141 247.374C218.513 247.374 227.901 251.566 234.728 258.392C241.53 265.196 245.745 274.585 245.745 284.98C245.745 295.351 241.53 304.763 234.728 311.567L234.535 311.734C227.757 318.44 218.416 322.585 208.141 322.585C197.745 322.585 188.333 318.368 181.53 311.566C174.728 304.762 170.536 295.35 170.536 284.979C170.536 274.608 174.753 265.195 181.53 258.391L181.602 258.32C188.405 251.566 197.795 247.374 208.141 247.374ZM439.974 117.052C427.614 104.695 410.511 97.029 391.637 97.029C372.763 97.029 355.686 104.695 343.326 117.052C330.943 129.411 323.302 146.513 323.302 165.387C323.302 184.261 330.944 201.34 343.303 213.699C355.686 226.083 372.763 233.722 391.637 233.722C410.511 233.722 427.614 226.082 439.974 213.699C452.355 201.341 459.997 184.261 459.997 165.387C459.997 146.585 452.404 129.555 440.14 117.197L439.974 117.052ZM317.268 169.148C317.196 167.902 317.17 166.633 317.17 165.387C317.17 163.783 317.218 162.177 317.315 160.597H6.945V348.524H17.052V172.071C17.052 170.466 18.37 169.147 19.975 169.147H317.268V169.148ZM319.829 185.124C318.92 181.843 318.248 178.465 317.793 175.015H22.922V351.565V362.966H33.029V188.071C33.029 186.44 34.346 185.124 35.975 185.124H319.829ZM377.362 238.488C362.536 235.591 349.266 228.308 338.99 218.033L338.919 217.963C331.373 210.393 325.458 201.219 321.697 191.017H38.921V365.985V378.944H377.362V238.488ZM409.17 128.574V164.979H424.763C425.505 164.979 426.248 165.267 426.824 165.818C427.973 166.945 427.998 168.811 426.871 169.962L393.315 204.333C392.141 205.458 390.296 205.411 389.17 204.237L356.547 170.105C355.973 169.554 355.589 168.79 355.589 167.926C355.589 166.297 356.906 164.979 358.535 164.979H374.128V128.574C374.128 126.944 375.445 125.628 377.074 125.628H406.224C407.852 125.628 409.17 126.944 409.17 128.574ZM403.278 167.927V131.495H380.02V167.927C380.02 169.532 378.679 170.848 377.074 170.848H365.41L391.326 197.988L417.793 170.848H406.225C404.618 170.848 403.278 169.532 403.278 167.927ZM88.693 211.398H327.589C329.193 211.398 330.536 212.715 330.536 214.344C330.536 221.651 333.505 228.285 338.345 233.123C343.158 237.936 349.792 240.932 357.097 240.932C358.726 240.932 360.044 242.248 360.044 243.878V326.08C360.044 327.709 358.726 329.027 357.097 329.027C349.792 329.027 343.133 331.996 338.345 336.81C333.505 341.648 330.536 348.283 330.536 355.613C330.536 357.217 329.193 358.559 327.589 358.559H88.693C87.065 358.559 85.747 357.216 85.747 355.613C85.747 348.308 82.753 341.648 77.938 336.834C73.125 332.021 66.465 329.027 59.16 329.027C57.532 329.027 56.214 327.709 56.214 326.08V243.878C56.214 242.248 57.531 240.932 59.16 240.932C66.465 240.932 73.124 237.936 77.938 233.123C82.753 228.285 85.747 221.65 85.747 214.344C85.747 212.716 87.065 211.398 88.693 211.398ZM209.794 295.949C210.92 295.71 211.854 295.159 212.573 294.345C213.266 293.507 213.626 292.525 213.626 291.4C213.626 290.392 213.338 289.531 212.74 288.789C212.141 288.069 211.159 287.518 209.794 287.111V295.949ZM206.513 271.925C205.627 272.238 204.932 272.741 204.43 273.484C203.902 274.201 203.663 274.993 203.663 275.854C203.663 276.644 203.879 277.388 204.358 278.082C204.813 278.754 205.555 279.305 206.513 279.734V271.925ZM148.334 413.17C146.706 413.17 145.388 411.853 145.388 410.224C145.388 408.596 146.706 407.278 148.334 407.278H309.314C310.943 407.278 312.26 408.596 312.26 410.224C312.26 411.853 310.943 413.17 309.314 413.17H148.334ZM325.793 413.17C324.165 413.17 322.848 411.853 322.848 410.224C322.848 408.596 324.165 407.278 325.793 407.278H345.913C347.542 407.278 348.859 408.596 348.859 410.224C348.859 411.853 347.542 413.17 345.913 413.17H325.793ZM2.946 412.74C1.316 412.74 0 411.422 0 409.794C0 408.164 1.316 406.848 2.946 406.848H79.232C80.838 406.848 82.154 408.164 82.154 409.794C82.154 411.422 80.838 412.74 79.232 412.74H2.946ZM83.855 106.394C85.004 105.268 86.872 105.292 87.998 106.442C89.124 107.592 89.124 109.461 87.951 110.587L76.407 121.916L76.358 121.963C75.807 122.562 75.042 122.945 74.179 122.945C73.317 122.945 72.526 122.561 71.999 121.963L71.952 121.916L60.383 110.587C59.234 109.461 59.209 107.592 60.336 106.442C61.485 105.293 63.352 105.268 64.503 106.394L71.232 113.004V54.682C71.232 53.054 72.55 51.736 74.178 51.736C75.783 51.736 77.124 53.054 77.124 54.682V113.004L83.855 106.394ZM134.201 118.825C135.352 117.675 137.219 117.7 138.346 118.848C139.495 119.998 139.471 121.867 138.322 122.992L126.753 134.345L126.706 134.393C126.18 134.968 125.388 135.351 124.527 135.351C123.665 135.351 122.899 134.994 122.347 134.393L122.3 134.345L110.731 122.992C109.58 121.867 109.58 119.999 110.707 118.848C111.833 117.7 113.7 117.674 114.85 118.825L121.581 125.412V23.878C121.581 22.25 122.899 20.933 124.527 20.933C126.155 20.933 127.473 22.25 127.473 23.878V125.412L134.201 118.825ZM170.633 97.891C171.807 96.766 173.651 96.766 174.8 97.915C175.925 99.089 175.902 100.933 174.753 102.083L163.184 113.411L163.135 113.46C162.608 114.059 161.819 114.419 160.98 114.419C160.118 114.419 159.327 114.059 158.776 113.46L158.751 113.411L147.184 102.083C146.033 100.933 146.01 99.089 147.135 97.915C148.286 96.766 150.13 96.766 151.302 97.891L158.033 104.478V2.944C158.033 1.315 159.351 0 160.979 0C162.583 0 163.9 1.315 163.9 2.944V104.477L170.633 97.891ZM12.095 399.015C10.49 399.015 9.174 397.697 9.174 396.069C9.174 394.44 10.49 393.123 12.095 393.123H244.74C246.369 393.123 247.686 394.44 247.686 396.069C247.686 397.697 246.369 399.015 244.74 399.015H12.095ZM206.513 295.589V286.152C203.591 285.315 201.434 284.045 200.069 282.319C198.704 280.62 198.009 278.559 198.009 276.117C198.009 273.649 198.801 271.59 200.332 269.914C201.891 268.236 203.951 267.278 206.513 267.015V264.814H209.794V267.015C212.189 267.303 214.106 268.118 215.543 269.46C216.956 270.825 217.866 272.62 218.251 274.871L212.525 275.615C212.165 273.841 211.256 272.644 209.795 272.021V280.812C213.436 281.793 215.903 283.063 217.196 284.595C218.514 286.152 219.184 288.164 219.184 290.584C219.184 293.314 218.345 295.588 216.692 297.457C215.039 299.326 212.74 300.476 209.794 300.93V305.147H206.513V300.979C203.926 300.666 201.819 299.709 200.19 298.105C198.585 296.5 197.555 294.223 197.1 291.28L202.968 290.585C203.207 291.782 203.663 292.812 204.309 293.698C204.98 294.562 205.698 295.183 206.513 295.589Z" fill="black"/>
</svg>
