<svg viewBox="0 0 200 200" fill="none" xmlns="http://www.w3.org/2000/svg">
<path d="M195 162.5H190C181.862 162.5 175.687 159.211 172.472 155.508C169.691 152.301 166.328 150 162.544 150H157.45C153.666 150 150.303 152.301 147.522 155.508C144.313 159.211 138.138 162.5 130 162.5C121.862 162.5 115.688 159.211 112.472 155.508C109.691 152.301 106.328 150 102.544 150H97.45C93.6656 150 90.3031 152.301 87.5219 155.508C84.3125 159.211 78.1375 162.5 70 162.5C61.8625 162.5 55.6875 159.211 52.4719 155.508C49.6906 152.301 46.3281 150 42.5437 150H37.45C33.6656 150 30.3031 152.301 27.5219 155.508C24.3125 159.211 18.1375 162.5 10 162.5H5C2.2375 162.5 0 165.297 0 168.75V181.25C0 184.703 2.2375 187.5 5 187.5H10C22.0687 187.5 32.725 182.738 40 175.063C47.275 182.742 57.9313 187.5 70 187.5C82.0687 187.5 92.725 182.738 100 175.063C107.275 182.742 117.931 187.5 130 187.5C142.069 187.5 152.725 182.738 160 175.063C167.275 182.742 177.931 187.5 190 187.5H195C197.763 187.5 200 184.703 200 181.25V168.75C200 165.297 197.763 162.5 195 162.5ZM70 150V112.5H130V150C135.975 150 139.644 147.594 140.747 146.32C143.613 143.016 146.747 140.719 150 139.262V50C150 43.1094 154.488 37.5 160 37.5C165.512 37.5 170 43.1094 170 50V56.25C170 59.7031 172.237 62.5 175 62.5H185C187.763 62.5 190 59.7031 190 56.25V50C190 29.3203 176.544 12.5 160 12.5C143.456 12.5 130 29.3203 130 50V87.5H70V50C70 43.1094 74.4875 37.5 80 37.5C85.5125 37.5 90 43.1094 90 50V56.25C90 59.7031 92.2375 62.5 95 62.5H105C107.763 62.5 110 59.7031 110 56.25V50C110 29.3203 96.5437 12.5 80 12.5C63.4563 12.5 50 29.3203 50 50V139.258C53.2531 140.715 56.3875 143.016 59.2531 146.316C60.3563 147.594 64.025 150 70 150Z" fill="currentColor"/>
</svg>
