<svg width="9" height="9" viewBox="0 0 9 9" fill="none" xmlns="http://www.w3.org/2000/svg">
<g clip-path="url(#clip0_189_6143)">
<path d="M4.629 1.06792C4.72317 0.856637 4.77028 0.750996 4.83585 0.718464C4.89281 0.6902 4.95968 0.6902 5.01664 0.718464C5.08221 0.750996 5.12932 0.856637 5.22349 1.06792L5.97363 2.75082C6.00149 2.81328 6.01541 2.84451 6.03697 2.86842C6.056 2.88958 6.07931 2.90651 6.10531 2.91809C6.13472 2.93119 6.16873 2.93478 6.23675 2.94196L8.06909 3.13535C8.29913 3.15963 8.41413 3.17177 8.46535 3.22408C8.50981 3.26952 8.53048 3.33314 8.5212 3.39605C8.51054 3.46846 8.42463 3.54587 8.2528 3.70074L6.88404 4.93423C6.83327 4.98 6.80785 5.0029 6.79178 5.03076C6.77754 5.05546 6.76863 5.08283 6.76566 5.11115C6.76229 5.14316 6.76937 5.1766 6.78356 5.24352L7.16587 7.04592C7.21387 7.27222 7.23788 7.38535 7.20395 7.4502C7.17446 7.50658 7.12035 7.54588 7.05766 7.55649C6.9855 7.5687 6.8853 7.51093 6.68491 7.39536L5.08884 6.47478C5.02961 6.44061 5 6.42356 4.96851 6.41685C4.94065 6.41095 4.91184 6.41095 4.88398 6.41685C4.85249 6.42356 4.82288 6.44061 4.76365 6.47478L3.16758 7.39536C2.9672 7.51093 2.86701 7.5687 2.79484 7.55649C2.73215 7.54588 2.67803 7.50658 2.64856 7.4502C2.61464 7.38535 2.63864 7.27222 2.68663 7.04592L3.06893 5.24352C3.08312 5.1766 3.09021 5.14316 3.08684 5.11115C3.08386 5.08283 3.07496 5.05546 3.06072 5.03076C3.04464 5.0029 3.01924 4.98 2.96844 4.93423L1.59972 3.70074C1.42788 3.54587 1.34196 3.46846 1.33128 3.39605C1.322 3.33314 1.34267 3.26952 1.38715 3.22408C1.43836 3.17177 1.55338 3.15963 1.78343 3.13535L3.61576 2.94196C3.68377 2.93478 3.71777 2.93119 3.74718 2.91809C3.77319 2.90651 3.79648 2.88958 3.81555 2.86842C3.83709 2.84451 3.85101 2.81328 3.87885 2.75082L4.629 1.06792Z" fill="#FBB707" stroke="#FBB707" stroke-linecap="round" stroke-linejoin="round"/>
</g>
<defs>
<clipPath id="clip0_189_6143">
<rect width="8.36842" height="8.36842" fill="white" transform="translate(0.631836)"/>
</clipPath>
</defs>
</svg>
