<svg width="40" height="40" viewBox="0 0 40 40" fill="none" xmlns="http://www.w3.org/2000/svg">
<g clip-path="url(#clip0_453_12)">
<rect width="40" height="40" fill="#F2F2F2"/>
<path d="M8 19.497C8 14.0774 8 11.3674 9.68359 9.68359C11.3674 8 14.0774 8 19.497 8H20.4551C25.8747 8 28.5847 8 30.2685 9.68359C31.9521 11.3674 31.9521 14.0774 31.9521 19.497V20.4551C31.9521 25.8747 31.9521 28.5847 30.2685 30.2685C28.5847 31.9521 25.8747 31.9521 20.4551 31.9521H19.497C14.0774 31.9521 11.3674 31.9521 9.68359 30.2685C8 28.5847 8 25.8747 8 20.4551V19.497Z" fill="#0077FF"/>
<path d="M20.7444 25.2555C15.2855 25.2555 12.1717 21.5129 12.0419 15.2854H14.7765C14.8663 19.8562 16.8821 21.7922 18.479 22.1915V15.2854H21.0538V19.2274C22.6309 19.0579 24.2874 17.2614 24.8462 15.2854H27.421C26.992 17.7206 25.1956 19.5168 23.918 20.2555C25.1956 20.8543 27.2416 22.421 28.0201 25.2555H25.1856C24.5767 23.3592 23.0598 21.8921 21.0538 21.6926V25.2555H20.7444Z" fill="white"/>
</g>
<defs>
<clipPath id="clip0_453_12">
<rect width="40" height="40" rx="20" fill="white"/>
</clipPath>
</defs>
</svg>
