<svg width="200" height="200" viewBox="0 0 200 200" fill="none" xmlns="http://www.w3.org/2000/svg">
<path d="M135.41 118.867C125.685 110.223 113.126 105.448 100.115 105.448C87.1034 105.448 74.5445 110.223 64.8198 118.867C63.9981 119.578 63.3259 120.445 62.8421 121.418C62.3583 122.391 62.0727 123.451 62.0018 124.535C61.931 125.62 62.0762 126.707 62.4292 127.735C62.7822 128.763 63.3358 129.71 64.058 130.522C64.7802 131.334 65.6565 131.994 66.636 132.465C67.6156 132.935 68.6788 133.206 69.764 133.263C70.8492 133.319 71.9348 133.159 72.9576 132.792C73.9804 132.425 74.9201 131.858 75.7222 131.125C82.4433 125.152 91.1228 121.852 100.115 121.852C109.107 121.852 117.786 125.152 124.507 131.125C126.134 132.571 128.268 133.311 130.441 133.183C132.613 133.055 134.646 132.07 136.091 130.443C137.537 128.817 138.277 126.683 138.15 124.51C138.022 122.338 137.036 120.305 135.41 118.859V118.867Z" fill="black"/>
<path d="M100.11 71.7579C78.0853 71.7275 56.8785 80.0985 40.8129 95.1641C39.9994 95.8928 39.3397 96.7765 38.8723 97.7634C38.4049 98.7504 38.1393 99.8207 38.091 100.912C38.0428 102.003 38.2128 103.092 38.5912 104.117C38.9695 105.141 39.5487 106.08 40.2945 106.877C41.0404 107.675 41.938 108.315 42.9348 108.762C43.9315 109.208 45.0073 109.45 46.099 109.475C47.1908 109.5 48.2765 109.307 49.2926 108.907C50.3086 108.506 51.2345 107.907 52.016 107.145C65.0608 94.9488 82.2518 88.1643 100.11 88.1643C117.968 88.1643 135.159 94.9488 148.203 107.145C148.985 107.907 149.911 108.506 150.927 108.907C151.943 109.307 153.029 109.5 154.12 109.475C155.212 109.45 156.288 109.208 157.285 108.762C158.281 108.315 159.179 107.675 159.925 106.877C160.671 106.08 161.25 105.141 161.628 104.117C162.007 103.092 162.177 102.003 162.128 100.912C162.08 99.8207 161.815 98.7504 161.347 97.7634C160.88 96.7765 160.22 95.8928 159.407 95.1641C143.341 80.0985 122.134 71.7275 100.11 71.7579Z" fill="black"/>
<path d="M180.469 68.6953C158.353 48.9623 129.749 38.0566 100.11 38.0566C70.4699 38.0566 41.8663 48.9623 19.7502 68.6953C18.919 69.4053 18.2381 70.2742 17.7475 71.2511C17.2569 72.228 16.9665 73.2931 16.8934 74.3838C16.8202 75.4745 16.9659 76.5688 17.3216 77.6024C17.6774 78.6361 18.2362 79.5882 18.9652 80.4028C19.6941 81.2174 20.5786 81.8781 21.5665 82.3461C22.5544 82.814 23.6259 83.0798 24.718 83.1278C25.8101 83.1758 26.9008 83.005 27.9259 82.6255C28.9511 82.246 29.8901 81.6654 30.6877 80.9179C49.7956 63.8764 74.5044 54.4588 100.108 54.4588C125.711 54.4588 150.42 63.8764 169.528 80.9179C171.149 82.3683 173.281 83.115 175.453 82.9938C177.626 82.8726 179.661 81.8933 181.111 80.2714C182.562 78.6496 183.309 76.518 183.187 74.3455C183.066 72.1731 182.087 70.1378 180.465 68.6874L180.469 68.6953Z" fill="black"/>
<path d="M100.109 166.176C107.013 166.176 112.609 160.579 112.609 153.676C112.609 146.772 107.013 141.176 100.109 141.176C93.2058 141.176 87.6094 146.772 87.6094 153.676C87.6094 160.579 93.2058 166.176 100.109 166.176Z" fill="black"/>
</svg>
