<svg width="17" height="17" viewBox="0 0 17 17" fill="none" xmlns="http://www.w3.org/2000/svg">
<g clip-path="url(#clip0_13_42)">
<rect width="17" height="17" fill="#F2F2F2"/>
<path d="M8.5 14C11.5376 14 14 11.5376 14 8.5C14 5.46243 11.5376 3 8.5 3C5.46243 3 3 5.46243 3 8.5C3 11.5376 5.46243 14 8.5 14Z" fill="#FC3F1D"/>
<path d="M10.4902 11.9527H9.2828V5.98116H8.74495C7.75905 5.98116 7.24263 6.47411 7.24263 7.20996C7.24263 8.04481 7.59882 8.43162 8.33569 8.92456L8.94294 9.33382L7.19772 11.9517H5.89952L7.47022 9.61449C6.56699 8.96947 6.05873 8.33976 6.05873 7.27732C6.05873 5.94952 6.98442 5.0463 8.73678 5.0463H10.482V11.9506H10.4902V11.9527Z" fill="white"/>
</g>
<defs>
<clipPath id="clip0_13_42">
<rect width="17" height="17" rx="8.5" fill="white"/>
</clipPath>
</defs>
</svg>
